:SAMPLES-PER-SECOND 30
:FULLY-SPECIFIED
:DEGREES
494
root  45.3654 38.3772 9.6841 171.566 -41.5375 176.796
RightUpLeg  -15.3993 5.43241 -4.50834
RightLeg  23.8392 -0.58308 -0.502428
RightFoot  -5.02309 -0.228824 3.52621
RightToes  3.49245e-010 0 -3.6325e-017
Spine  13.531 -4.08546 -7.33018
Spine1  9.34142 -6.7928 4.99029
HEad  -1.99629 -20.3476 -6.54879
LeftShoulder1  0.805125 0.714189 -22.5213
LeftArm  -12.494 -8.25266 -40.8605
LeftForeArm  3.6151 -15.8283 -4.24308
LeftHand  -0.14116 3.65685 8.5406
RightShoulder  -0.389584 -4.80868 22.9063
RightArm  13.107 -4.57382 34.0724
RightForeArm  -0.34282 24.7277 5.29954
RightHand  -0.497566 1.8599 -8.13893
LeftUpLeg  9.91897 4.84516 -10.2027
LeftLeg  14.3519 -2.97085 -1.03351
LeftFoot  -12.9703 0.243787 11.5543
LeftToes  -2.21735e-009 9.83027e-011 -4.04511e-011
495
root  44.3609 38.2495 9.23521 171.396 -45.3207 177.18
RightUpLeg  -15.0174 1.97919 -2.33467
RightLeg  17.2749 -0.28808 -0.3743
RightFoot  -5.27667 -0.282575 4.66085
RightToes  3.49245e-010 0 -3.6325e-017
Spine  12.534 -4.28131 -7.08578
Spine1  10.3888 -7.0076 5.3533
HEad  -2.48617 -22.4978 -4.81937
LeftShoulder1  0.824107 0.695007 -23.0286
LeftArm  -11.0058 -8.47846 -42.0145
LeftForeArm  6.22978 -13.7517 -4.72246
LeftHand  -0.069215 4.51903 6.9352
RightShoulder  -0.465254 -5.05066 23.213
RightArm  13.1729 -5.3323 31.6232
RightForeArm  1.44344 27.1182 5.76544
RightHand  -0.433331 1.58932 -7.42798
LeftUpLeg  11.826 3.9512 -10.9583
LeftLeg  14.4074 -4.86471 -0.667607
LeftFoot  -13.7804 0.360411 12.9636
LeftToes  -2.21735e-009 9.83027e-011 -4.04511e-011
496
root  43.3108 38.0876 8.76348 172.09 -48.4346 177.017
RightUpLeg  -15.1639 -2.96915 -0.180998
RightLeg  11.3698 0.295813 0.0394899
RightFoot  -5.36012 -0.374897 6.46083
RightToes  3.49245e-010 0 -3.6325e-017
Spine  11.1771 -4.34143 -7.4958
Spine1  11.181 -7.22498 6.20384
HEad  -2.73538 -24.0038 -3.44331
LeftShoulder1  0.844265 0.70055 -23.8429
LeftArm  -11.0531 -8.24046 -42.7453
LeftForeArm  10.2264 -10.802 -4.97985
LeftHand  -0.0429559 4.94585 5.70894
RightShoulder  -0.484412 -5.11802 23.1574
RightArm  12.8717 -6.4055 30.6433
RightForeArm  1.24571 28.3592 6.07057
RightHand  -0.434876 0.414441 -8.75487
LeftUpLeg  13.4428 3.44886 -11.5406
LeftLeg  14.2251 -6.77233 -0.964183
LeftFoot  -14.7053 0.498778 13.897
LeftToes  -2.21735e-009 9.83027e-011 -4.04511e-011
497
root  42.1858 37.9164 8.26026 173.164 -50.8034 176.821
RightUpLeg  -15.5088 -4.62549 1.25964
RightLeg  6.57964 -2.60202 1.11055
RightFoot  -5.1962 -0.418881 7.14737
RightToes  3.49245e-010 0 -3.6325e-017
Spine  9.48373 -4.46185 -7.39826
Spine1  11.8136 -7.24436 6.3284
HEad  -3.12084 -25.4402 -1.7763
LeftShoulder1  0.825981 0.786761 -24.158
LeftArm  -11.0954 -7.53225 -43.3846
LeftForeArm  13.3677 -7.31445 -4.96953
LeftHand  -0.0184939 5.6125 4.22081
RightShoulder  -0.507727 -5.18651 23.3479
RightArm  12.2853 -7.64925 30.7542
RightForeArm  1.02581 28.6269 6.14722
RightHand  -0.494536 1.59669 -8.35886
LeftUpLeg  14.8666 3.05764 -12.0391
LeftLeg  13.8406 -8.30817 -1.2582
LeftFoot  -15.3977 0.622855 14.8621
LeftToes  -2.21735e-009 9.83027e-011 -4.04511e-011
498
root  40.9837 37.697 7.75249 173.844 -52.9432 176.72
RightUpLeg  -15.2582 -3.92345 1.89432
RightLeg  3.30378 -7.4114 2.44126
RightFoot  -5.39666 -0.458109 8.09918
RightToes  3.49245e-010 0 -3.6325e-017
Spine  8.81279 -4.55217 -7.54499
Spine1  11.6566 -7.45699 6.98459
HEad  -5.28412 -25.678 1.25848
LeftShoulder1  0.764615 1.07432 -25.2497
LeftArm  -10.5927 -6.63695 -43.1696
LeftForeArm  13.8957 -3.97526 -4.88652
LeftHand  0.0148254 7.08757 3.30583
RightShoulder  -0.527721 -5.24762 23.4549
RightArm  10.896 -8.38032 31.955
RightForeArm  1.91156 27.333 5.7934
RightHand  -0.419337 1.55718 -7.16628
LeftUpLeg  16.3809 2.651 -12.5572
LeftLeg  14.2466 -9.15101 -1.42848
LeftFoot  -16.1202 0.758752 15.7515
LeftToes  -2.21735e-009 9.83027e-011 -4.04511e-011
499
root  39.705 37.4706 7.23698 174.377 -55.0548 176.884
RightUpLeg  -15.4907 -3.7977 2.76307
RightLeg  3.46055 -9.46642 2.82207
RightFoot  -5.07123 -0.449092 7.25604
RightToes  3.49245e-010 0 -3.6325e-017
Spine  8.07458 -4.83638 -7.52924
Spine1  11.764 -7.94044 7.77235
HEad  -7.77415 -26.1287 3.29381
LeftShoulder1  0.763834 1.11872 -25.8292
LeftArm  -10.897 -4.97819 -43.3409
LeftForeArm  13.9066 -0.977231 -4.40042
LeftHand  0.0188891 7.46592 3.07221
RightShoulder  -0.572426 -5.36856 23.9209
RightArm  10.3704 -8.16525 33.5699
RightForeArm  0.69646 25.119 5.34629
RightHand  -0.435522 1.8746 -7.13055
LeftUpLeg  17.8089 1.89681 -12.9927
LeftLeg  14.9073 -9.66508 -1.57488
LeftFoot  -16.7922 0.857144 15.7733
LeftToes  -2.21735e-009 9.83027e-011 -4.04511e-011
500
root  38.3336 37.3079 6.71216 174.433 -56.9596 177.898
RightUpLeg  -16.4559 -4.19539 4.00513
RightLeg  6.41076 -8.23118 2.43581
RightFoot  -3.06668 -0.208758 3.87565
RightToes  3.49245e-010 0 -3.6325e-017
Spine  7.27574 -5.10413 -6.56011
Spine1  11.6913 -8.34643 8.51955
HEad  -10.4378 -26.4341 4.70188
LeftShoulder1  0.735915 1.20691 -25.8544
LeftArm  -11.1904 -2.17595 -44.0292
LeftForeArm  14.0379 0.337082 -4.09351
LeftHand  0.0317912 7.87688 3.28186
RightShoulder  -0.65807 -5.61795 24.4231
RightArm  10.754 -8.26423 34.9342
RightForeArm  -0.399199 23.2876 4.99689
RightHand  -0.453189 2.10595 -7.19737
LeftUpLeg  19.1046 0.956709 -12.7787
LeftLeg  15.548 -10.3072 -2.0599
LeftFoot  -16.7381 0.837336 15.5096
LeftToes  -2.21735e-009 9.83027e-011 -4.04511e-011
501
root  36.9292 37.3357 6.25373 172.741 -58.7866 -179.013
RightUpLeg  -18.6113 -4.32184 5.8092
RightLeg  11.0049 -6.86077 1.24169
RightFoot  3.2204 0.675769 -5.4744
RightToes  3.49245e-010 0 -3.6325e-017
Spine  6.93039 -5.31644 -4.12589
Spine1  11.4484 -8.82101 9.86468
HEad  -13.5462 -26.6832 5.31449
LeftShoulder1  0.675738 1.45423 -26.8077
LeftArm  -11.4224 0.950687 -44.1708
LeftForeArm  14.4957 0.196989 -3.9756
LeftHand  0.0278616 8.07988 2.92303
RightShoulder  -0.6923 -5.69346 24.9271
RightArm  11.3161 -8.78231 35.6462
RightForeArm  -0.727551 22.0048 4.79658
RightHand  -0.425026 2.22539 -6.69189
LeftUpLeg  20.6341 -0.394133 -11.3839
LeftLeg  15.4047 -11.3859 -2.68308
LeftFoot  -15.2706 0.605874 14.9205
LeftToes  -2.21735e-009 9.83027e-011 -4.04511e-011
502
root  35.4083 37.2539 5.80011 170.097 -59.13 -175.194
RightUpLeg  -20.26 -6.7395 8.37272
RightLeg  16.727 -3.9403 -0.415685
RightFoot  4.48299 0.949695 -6.61893
RightToes  3.49245e-010 0 -3.6325e-017
Spine  6.96865 -5.15188 -0.281828
Spine1  10.5468 -8.30994 9.83952
HEad  -16.8552 -27.1329 5.96039
LeftShoulder1  0.598314 1.73875 -27.762
LeftArm  -11.5984 5.15344 -44.2712
LeftForeArm  14.5943 -2.27668 -4.14119
LeftHand  0.0197472 7.52019 3.0655
RightShoulder  -0.72657 -5.77541 25.3261
RightArm  12.2204 -8.66853 36.6759
RightForeArm  -1.03657 19.8091 4.65954
RightHand  -0.451394 3.12436 -6.3937
LeftUpLeg  21.004 0.254185 -8.90371
LeftLeg  18.3445 -13.351 -4.52025
LeftFoot  -13.7037 0.360547 13.7317
LeftToes  -2.21735e-009 9.83027e-011 -4.04511e-011
503
root  33.9527 37.2974 5.41661 168.564 -58.9129 -172.351
RightUpLeg  -21.0601 -7.35128 9.83732
RightLeg  20.5478 -2.60302 -1.29728
RightFoot  3.72782 1.09993 -8.11704
RightToes  3.49245e-010 0 -3.6325e-017
Spine  6.84933 -5.01133 3.58481
Spine1  9.78241 -7.55432 9.01952
HEad  -20.4454 -25.5263 8.05506
LeftShoulder1  0.47248 2.1365 -28.4252
LeftArm  -11.6568 9.2749 -44.3077
LeftForeArm  14.5386 -5.03015 -4.4072
LeftHand  0.00568348 7.28222 2.66955
RightShoulder  -0.645068 -5.50856 25.4731
RightArm  12.1961 -8.13786 38.6769
RightForeArm  1.31655 17.1483 4.7029
RightHand  -0.46577 2.29331 -7.22318
LeftUpLeg  19.4633 3.06524 -5.63927
LeftLeg  23.7198 -17.4417 -7.97989
LeftFoot  -9.59059 -0.0948873 10.754
LeftToes  -2.21735e-009 9.83027e-011 -4.04511e-011
504
root  32.7199 37.3989 4.99909 167.605 -60.1442 -170.453
RightUpLeg  -20.9137 -7.17336 9.83396
RightLeg  22.9588 -3.91682 -2.03309
RightFoot  1.56854 0.980068 -8.51938
RightToes  3.49245e-010 0 -3.6325e-017
Spine  7.24208 -4.94779 4.94543
Spine1  8.99662 -7.35156 10.0684
HEad  -22.8831 -24.9294 10.0545
LeftShoulder1  0.403465 2.34534 -28.6997
LeftArm  -11.4589 12.3417 -44.6993
LeftForeArm  14.936 -7.08384 -4.80093
LeftHand  0.016322 6.7172 4.08191
RightShoulder  -0.66523 -5.55645 25.7026
RightArm  10.4188 -7.79959 40.7785
RightForeArm  3.58279 14.872 4.73219
RightHand  -0.467622 2.47372 -7.1073
LeftUpLeg  15.9252 5.86938 -1.65712
LeftLeg  32.5384 -21.9404 -14.1143
LeftFoot  -4.17761 0.0306352 0.373016
LeftToes  -2.21735e-009 9.83027e-011 -4.04511e-011
505
root  31.6512 37.4635 4.63778 165.937 -62.2874 -167.909
RightUpLeg  -20.5267 -8.69011 9.82447
RightLeg  24.6564 -4.41293 -2.32442
RightFoot  -1.08013 0.668038 -7.49284
RightToes  3.49245e-010 0 -3.6325e-017
Spine  7.70645 -5.02663 6.6818
Spine1  8.20856 -7.02159 10.6995
HEad  -23.494 -26.4266 11.036
LeftShoulder1  0.427405 2.26691 -28.4355
LeftArm  -10.8427 14.0228 -45.2214
LeftForeArm  15.7383 -8.59821 -5.31928
LeftHand  0.0243908 7.0549 4.07124
RightShoulder  -0.770291 -5.86276 26.0193
RightArm  8.1621 -8.51006 42.7794
RightForeArm  3.93307 14.5816 4.40358
RightHand  -0.455688 2.65485 -6.78542
LeftUpLeg  10.5372 5.83763 1.39364
LeftLeg  42.5297 -21.3121 -19.3026
LeftFoot  1.54987 1.89359 -16.3768
LeftToes  -2.21735e-009 9.83027e-011 -4.04511e-011
